<svg xmlns="http://www.w3.org/2000/svg" xml:space="preserve" fill-rule="evenodd" stroke-linecap="round" stroke-miterlimit="2" clip-rule="evenodd" viewBox="0 0 168 182"><path fill="none" stroke="#191919" stroke-width="11.4" d="M-1603-204.6c24.4.3 34.4 15.1 37 37.1" transform="matrix(-.33313 0 0 .345 -516.5 222)"/><path fill="none" stroke="#191919" stroke-width="9.3" d="M-939-486s36.9-174 143-111-130 130.2-133 129" transform="matrix(-.33236 -.25654 -.24771 .3442 -365.7 6.5)"/><path fill="#83254f" fill-rule="nonzero" d="M100.6 164.6c-15 4.7-29.2 6.7-42.8 6.5-13.4-.6-25-3.9-34.6-10.1a46.6 46.6 0 0 1-19.9-28A48.8 48.8 0 0 1 5 98a70.3 70.3 0 0 1 23.8-27.7c11.1-8 24-14.3 39.1-19a132 132 0 0 1 42.7-6.3c13.3.3 25 3.6 34.7 9.8 9.5 6 16.3 15.4 20 28a49.1 49.1 0 0 1-1.9 34.8 73.1 73.1 0 0 1-23.8 28.1 135 135 0 0 1-39 19Z"/><circle cx="-1669.5" cy="-74.5" r="17.5" fill="#191919" stroke="#191919" stroke-linecap="square" stroke-linejoin="round" stroke-width="11.4" transform="matrix(.33313 0 0 .345 578 143.2)"/><circle cx="-1669.5" cy="-74.5" r="17.5" fill="#191919" stroke="#191919" stroke-linecap="square" stroke-linejoin="round" stroke-width="11.4" transform="matrix(.33313 0 0 .345 611.6 149.2)"/><path fill="none" stroke="#191919" stroke-width="9.2" d="M-939-486s36.9-174 143-111-130 130.2-133 129" transform="matrix(.41452 0 0 .4293 479.5 286.1)"/><path fill="none" stroke="#191919" stroke-width="11.4" d="M-1603-204.6c24.4.3 34.4 15.1 37 37.1" transform="matrix(.33313 0 0 .345 618.1 235.2)"/><path fill="none" stroke="#191919" stroke-width="11.4" d="M-1603-204.6c24.4.3 34.4 15.1 37 37.1" transform="matrix(.33313 0 0 .345 647.3 222.4)"/><path fill="none" stroke="#191919" stroke-width="11.5" d="M-1603-204.6c24.4.3 34.4 15.1 37 37.1" transform="matrix(.32221 -.0876 .08458 .3337 668.9 70.1)"/><path fill="none" stroke="#191919" stroke-linejoin="round" stroke-width="17.4" d="M-1225-120c0 1.1 14 14.5 31 0 .5-.1 14.5 13.8 30.9.9" transform="matrix(.21705 .01635 -.01579 .22478 292.1 180)"/></svg>