<svg viewBox="0 0 85.420807 62.174137" xmlns="http://www.w3.org/2000/svg"><path d="m66.458073 51.708535-3.411906 18.513214a115541.21 115541.21 100.44298 0 1-.575491 3.122408l-3.822673 20.738867a.076561.076561 38.775488 0 0 .105075.08441l17.01172-7.183511a3.06067 3.06067 129.69246 0 0 1.800043-2.168741l3.265972-15.00714 3.941138-18.109522a1.279174 1.279174 51.13886 0 0-1.249917-1.551191H68.333297a1.906804 1.906804 140.2211 0 0-1.875224 1.561208z" style="opacity:1;vector-effect:none;fill:#dd4115;fill-opacity:1;stroke:none;stroke-width:.264583px;stop-color:#000;stop-opacity:1" transform="matrix(1.09496 0 0 1.04445 -59.284666 -51.178046)"/><path d="m89.588664 51.702322-4.787913 23.295116a1.2944 1.2944 50.807213 0 0 1.267897 1.554995h14.311272a2.011199 2.011199 141.7149 0 0 1.9562-1.54409l5.5677-23.316926a1.253062 1.253062 51.714902 0 0-1.2188-1.54409H91.495767a1.946968 1.946968 140.80721 0 0-1.907103 1.554995z" style="opacity:1;vector-effect:none;fill:#f5890c;fill-opacity:1;stroke-width:.264583px;stop-color:#000;stop-opacity:1" transform="matrix(1.09496 0 0 1.04445 -58.72797 -51.178046)"/><path d="M108.49364 76.552433h14.31127a2.053109 2.053109 142.28817 0 0 1.98703-1.536403l6.06731-23.3323a1.227483 1.227483 52.288167 0 0-1.18797-1.536403h-15.18873a1.98788 1.98788 141.38949 0 0-1.93864 1.548178l-5.28663 23.30875a1.267761 1.267761 51.389494 0 0 1.23636 1.548178z" style="opacity:1;vector-effect:none;fill:#f4be15;fill-opacity:1;stroke-width:.264583px;stop-color:#000;stop-opacity:1" transform="matrix(1.09496 0 0 1.04445 -57.908548 -51.178046)"/><path d="m77.745059 83.991559-18.962778 9.361592-2.463132 13.365179a1.532393 1.532393 50.22107 0 0 1.507014 1.81013h12.740515a2.284068 2.284068 141.13647 0 0 2.231868-1.79855z" style="opacity:1;vector-effect:none;fill:#dd4115;fill-opacity:1;stroke-width:.264583px;stop-color:#000;stop-opacity:1" transform="matrix(1.09496 0 0 1.04445 -59.284666 -51.178046)"/><path d="M130.07095 87.252539c-.009-.04782-.0969-.484685-.10745-.531369-.0403-.178009-.0896-.347638-.14771-.509626-.0581-.161987-.12514-.316107-.20207-.462827-.0769-.14672-.16338-.285884-.26015-.418089-.0968-.132203-.20383-.257475-.32147-.375918-.11764-.118443-.24589-.230374-.3854-.335807-.13949-.105434-.29019-.204577-.45256-.297752-.16235-.09318-.33668-.180083-.52293-.261756-.18623-.08167-.38423-.157921-.59534-.228842-.21112-.07093-.43512-.13655-.67212-.197474-.47402-.121848-1.00094-.224748-1.58454-.311123-.5836-.08638-1.22377-.156495-1.92502-.213415-.70123-.05692-1.46362-.100729-2.29054-.134219-.82694-.03348-1.71883-.05642-2.67952-.0725-.96067-.01608-1.9899-.02512-3.09238-.02983-2.20496-.0094-4.70159-.0021-7.52204-.0021-2.81949 0-5.29094-.0065-7.462629.0047-1.085844.0056-2.096723.01557-3.038908.03291-.942184.01735-1.815845.04194-2.626577.07714-.810732.03519-1.558522.08081-2.250001.139877-.691478.05906-1.326369.131631-1.910794.220614-.584424.08898-1.118294.194424-1.607866.319351-.244786.06247-.478679.12952-.702039.202102-.223359.07258-.436265.150532-.639722.233985-.203459.08346-.397331.172847-.582413.267927-.185083.09507-.36131.195948-.529544.303409-.16823.107459-.328262.221384-.481169.341978-.152905.120594-.298698.248122-.437803.382604-.139103.134483-.272048.27565-.398876.424774-.126829.149124-.247843.30602-.363918.47054-.116078.164522-.227081.336669-.333932.51734-.10685.180671-.209288.369645-.308437.567221-.1983.395153-.38269.825022-.559332 1.292318-.176644.467297-.345366.97209-.512554 1.517563-.167188.545471-.332685 1.131634-.502617 1.761317-.169935.629681-.344636 1.303147-.529512 2.023071-.191537.745861-.369978 1.445348-.530828 2.101239-.160852.655891-.304276 1.267783-.424532 1.839483-.120258.571702-.217423 1.102951-.287175 1.596242-.06975.493293-.112072.948793-.121411 1.369463-.0047.21033-.000712.41201.01158.60527.0123.19325.03337.37798.06387.55488.03049.17691.06997.34577.119891.50706.04993.16126.11014.31541.180747.46179.07061.14637.151779.28539.244304.41757.09253.13219.196465.25719.312144.37593.115681.11872.2431.23083.383173.33683.140073.10599.292799.20583.458504.29981.165707.0939.446495.26444.613718.32244" style="opacity:1;fill:none;stroke:#0060e2;stroke-width:5.1346;stroke-linecap:butt;stroke-linejoin:miter;stroke-miterlimit:2.9;stroke-opacity:1;stop-color:#000;stop-opacity:1" transform="matrix(.96705 0 0 1.04445 -48.329218 -51.178046)"/><path d="M80.594498 103.12117c1.650409 2.47456 4.690199 2.29638 5.880629 2.45561.691015.0741 1.449308.13329 2.280012.18102.830705.0477 1.733886.084 2.714189.11108.980301.0271 2.038049.0453 3.177855.0576 2.279618.0245 4.887997.0251 7.865087.0251 2.97708 0 5.5885.002 7.88371-.018 1.14761-.0103 2.21618-.0263 3.21208-.0509.99589-.0246 1.91873-.0578 2.77542-.10284.85669-.045 1.64721-.10177 2.37721-.1733.72999-.0715 1.3995-.15755 2.01529-.26176.30792-.0521.6026-.10881.8843-.17022.28169-.0614.55058-.12802.80764-.19954.25704-.0715.50198-.14801.73596-.23038.23397-.0824.45688-.17035.66934-.26433.21246-.094.41467-.19397.60719-.30032.19251-.10636.37537-.21888.54949-.33839.17412-.11949.33954-.24609.49684-.3795.15729-.13343.30657-.27411.44861-.42221.14202-.1481.27651-.30341.40484-.46693.12835-.16355.25051-.33503.36669-.51478.11622-.17975.22681-.36793.33243-.56465.10573-.19671.20604-.40212.30265-.61658.19325-.42893.37048-.893791.53706-1.398266.16659-.504476.32294-1.048656.47538-1.634811.15243-.586154.30079-1.214381.45157-1.888338.15077-.673957.3041-1.393521.46575-2.161406.14991-.712146.28278-1.377978.39558-2.000445.11282-.622467.2053-1.201424.27292-1.740233.0676-.538809.11078-1.037358.12518-1.498534.008-.230588.007-.452107-.00061-.664415-.008-.212308-.008-.273018-.0138-.325331-.004-.04396-.0502-.819462-.24408-1.248534" style="fill:none;fill-opacity:1;stroke:#0060e2;stroke-width:5.1346;stroke-linecap:butt;stroke-linejoin:miter;stroke-dasharray:none;stroke-opacity:1;stop-color:#000" transform="matrix(.96705 0 0 1.04445 -48.329218 -51.178046)"/><path style="font-variation-settings:normal;opacity:1;vector-effect:none;fill:#0060e2;fill-opacity:1;fill-rule:evenodd;stroke:none;stroke-width:.273594px;stroke-linecap:butt;stroke-linejoin:miter;stroke-miterlimit:4;stroke-dasharray:none;stroke-dashoffset:0;stroke-opacity:1;-inkscape-stroke:none;stop-color:#000;stop-opacity:1" transform="matrix(.85846 .48087 -.49717 .89585 -48.329218 -51.178046)" d="M149.97324 13.313162h3.98848v3.847366h-3.98848z"/><path style="font-variation-settings:normal;vector-effect:none;fill:#0060e2;fill-opacity:1;fill-rule:evenodd;stroke:none;stroke-width:.255326px;stroke-linecap:butt;stroke-linejoin:miter;stroke-miterlimit:4;stroke-dasharray:none;stroke-dashoffset:0;stroke-opacity:1;-inkscape-stroke:none;stop-color:#000" transform="matrix(.55757 -.85337 .84886 .50035 -48.329218 -51.178046)" d="M-55.410107 125.86371h4.749607v2.813771h-4.749607z"/><path style="font-variation-settings:normal;opacity:1;vector-effect:none;fill:#dd4115;fill-opacity:1;fill-rule:evenodd;stroke:none;stroke-width:.28079px;stroke-linecap:butt;stroke-linejoin:miter;stroke-miterlimit:4;stroke-dasharray:none;stroke-dashoffset:0;stroke-opacity:1;-inkscape-stroke:none;stop-color:#000;stop-opacity:1" transform="matrix(.87546 .44369 -.49944 .89438 -48.329218 -51.178046)" d="M95.58667 9.938723h2.878512v2.588391H95.58667z"/><path style="font-variation-settings:normal;vector-effect:none;fill:#f5890c;fill-opacity:1;fill-rule:evenodd;stroke:none;stroke-width:.28079px;stroke-linecap:butt;stroke-linejoin:miter;stroke-miterlimit:4;stroke-dasharray:none;stroke-dashoffset:0;stroke-opacity:1;-inkscape-stroke:none;stop-color:#000" transform="matrix(.87546 .44369 -.49944 .89438 -48.329218 -51.178046)" d="M118.59263-1.507857h2.878512v2.588391h-2.878512z"/><path style="font-variation-settings:normal;vector-effect:none;fill:#dd4115;fill-opacity:1;fill-rule:evenodd;stroke:none;stroke-width:.280804px;stroke-linecap:butt;stroke-linejoin:miter;stroke-miterlimit:4;stroke-dasharray:none;stroke-dashoffset:0;stroke-opacity:1;-inkscape-stroke:none;stop-color:#000" transform="matrix(.87273 .44992 -.50569 .89027 -48.329218 -51.178046)" d="M99.843925 72.630775h2.876543V75.2212h-2.876543z"/><path style="font-variation-settings:normal;vector-effect:none;fill:#f5890c;fill-opacity:1;fill-rule:evenodd;stroke:none;stroke-width:.280804px;stroke-linecap:butt;stroke-linejoin:miter;stroke-miterlimit:4;stroke-dasharray:none;stroke-dashoffset:0;stroke-opacity:1;-inkscape-stroke:none;stop-color:#000" transform="matrix(.87273 .44992 -.50569 .89027 -48.329218 -51.178046)" d="M111.01959 29.483734h2.876543v2.590425h-2.876543z"/><path style="font-variation-settings:normal;vector-effect:none;fill:#f4be15;fill-opacity:1;fill-rule:evenodd;stroke:none;stroke-width:.280804px;stroke-linecap:butt;stroke-linejoin:miter;stroke-miterlimit:4;stroke-dasharray:none;stroke-dashoffset:0;stroke-opacity:1;-inkscape-stroke:none;stop-color:#000" transform="matrix(.87273 .44992 -.50569 .89027 -48.329218 -51.178046)" d="M133.51608 18.11569h2.876543v2.590425h-2.876543z"/><path style="font-variation-settings:normal;vector-effect:none;fill:#f4be15;fill-opacity:1;fill-rule:evenodd;stroke:none;stroke-width:.280495px;stroke-linecap:butt;stroke-linejoin:miter;stroke-miterlimit:4;stroke-dasharray:none;stroke-dashoffset:0;stroke-opacity:1;-inkscape-stroke:none;stop-color:#000" transform="matrix(.87582 .44285 -.50028 .89383 -48.329218 -51.178046)" d="M141.78685-12.851166h2.877318v2.584023h-2.877318z"/><g style="display:inline"><path d="m66.458073 51.708535-3.411906 18.513214a115541.21 115541.21 100.44298 0 1-.575491 3.122408l-3.822673 20.738867a.076561.076561 38.775488 0 0 .105075.08441l17.01172-7.183511a3.06067 3.06067 129.69246 0 0 1.800043-2.168741l3.265972-15.00714 3.941138-18.109522a1.279174 1.279174 51.13886 0 0-1.249917-1.551191H68.333297a1.906804 1.906804 140.2211 0 0-1.875224 1.561208z" style="opacity:1;vector-effect:none;fill:#ff7f29;fill-opacity:1;stroke:none;stroke-width:.264583px;stop-color:#000;stop-opacity:1" transform="matrix(1.09496 0 0 1.04445 -61.639618 -52.376211)"/><path d="m89.588664 51.702322-4.787913 23.295116a1.2944 1.2944 50.807213 0 0 1.267897 1.554995h14.311272a2.011199 2.011199 141.7149 0 0 1.9562-1.54409l5.5677-23.316926a1.253062 1.253062 51.714902 0 0-1.2188-1.54409H91.495767a1.946968 1.946968 140.80721 0 0-1.907103 1.554995z" style="opacity:1;vector-effect:none;fill:#ffb91d;fill-opacity:1;stroke-width:.264583px;stop-color:#000;stop-opacity:1" transform="matrix(1.09496 0 0 1.04445 -61.082922 -52.376211)"/><path d="M108.49364 76.552433h14.31127a2.053109 2.053109 142.28817 0 0 1.98703-1.536403l6.06731-23.3323a1.227483 1.227483 52.288167 0 0-1.18797-1.536403h-15.18873a1.98788 1.98788 141.38949 0 0-1.93864 1.548178l-5.28663 23.30875a1.267761 1.267761 51.389494 0 0 1.23636 1.548178z" style="opacity:1;vector-effect:none;fill:#ffea1b;fill-opacity:1;stroke-width:.264583px;stop-color:#000;stop-opacity:1" transform="matrix(1.09496 0 0 1.04445 -60.2635 -52.376211)"/><path d="M130.05766 87.254527c-.009-.04782-.0969-.484685-.10745-.531369-.0403-.178009-.0896-.347638-.14771-.509626-.0581-.161988-.12514-.316107-.20207-.462827-.0768-.14672-.16338-.285884-.26016-.418089-.0968-.132204-.20381-.257475-.32147-.375918-.11764-.118443-.24589-.230374-.38539-.335808-.1395-.105433-.2902-.204576-.45256-.297752-.16236-.09318-.33669-.180083-.52293-.261756-.18623-.08167-.38424-.15792-.59535-.228842-.21112-.07093-.43511-.136549-.67212-.197473-.47401-.121849-1.00093-.224749-1.58453-.311123-.5836-.08638-1.22378-.156495-1.92503-.213416-.70123-.05692-1.46361-.100728-2.29053-.134218-.82695-.03348-1.71884-.05642-2.67953-.0725-.96066-.01608-1.9899-.02512-3.09238-.02983-2.20496-.0094-4.70159-.0021-7.52204-.0021-2.81949 0-5.29094-.0065-7.462628.0047-1.085838.0056-2.096719.01557-3.038902.03291-.942185.01735-1.815846.04194-2.62658.07714-.81073.03519-1.55852.08081-2.249999.139878-.691478.05906-1.326369.131631-1.910794.220614-.584425.08899-1.118293.194424-1.607866.319351-.244785.06247-.47868.129519-.702038.202102-.223361.07258-.436265.150531-.639724.233985-.203458.08346-.397329.172846-.582413.267927-.185082.09507-.36131.195948-.529542.303409-.168231.107458-.328264.221383-.481169.341978-.152906.120594-.298699.248122-.437804.382604-.139104.134483-.272048.27565-.398876.424773-.126828.149125-.247842.306021-.36392.470541-.116076.164521-.227079.336669-.33393.51734-.106851.180671-.209288.369644-.308436.567221-.198301.395152-.38269.825022-.559333 1.292317-.176644.467297-.345366.972091-.512554 1.517563-.167189.545472-.332687 1.131635-.502619 1.761318-.169933.629681-.344633 1.303147-.529509 2.02307-.191539.745862-.369978 1.445349-.530829 2.10124-.160851.655891-.304277 1.267782-.424533 1.839483-.120257.571702-.217422 1.10295-.287174 1.596242-.06975.493294-.112071.948794-.12142 1.369464-.0047.21033-.000713.41203.01158.60527.01229.19326.03337.37798.06386.55487.03049.17692.06997.34577.11989.50706.04993.16128.11014.31542.180748.46179.07061.14638.151777.2854.244303.41758.09253.13218.196465.2572.312144.37592.115681.11873.243099.23085.383173.33684.140072.10599.292799.20584.458503.2998.165707.0939.446495.26444.613719.32245" style="opacity:1;fill:none;stroke:#00b3ff;stroke-width:5.1346;stroke-linecap:butt;stroke-linejoin:miter;stroke-miterlimit:2.9;stroke-opacity:1;stop-color:#000;stop-opacity:1" transform="matrix(.96705 0 0 1.04445 -50.409067 -52.376211)"/><path d="m77.745059 83.991559-18.962778 9.361592-2.463132 13.365179a1.532393 1.532393 50.22107 0 0 1.507014 1.81013h12.740515a2.284068 2.284068 141.13647 0 0 2.231868-1.79855z" style="opacity:1;vector-effect:none;fill:#f65c22;fill-opacity:1;stroke-width:.264583px;stop-color:#000;stop-opacity:1" transform="matrix(1.09496 0 0 1.04445 -61.639618 -52.376211)"/><path d="M80.581204 103.12317c1.650409 2.47454 4.690198 2.29637 5.88063 2.4556.691015.0741 1.449307.13328 2.280011.18102.830705.0477 1.733887.0839 2.714189.11107.980301.0271 2.038048.0453 3.177856.0576 2.279618.0245 4.887995.0251 7.86509.0251 2.9771 0 5.5885.002 7.88371-.018 1.14761-.0103 2.21617-.0263 3.21207-.0509.99589-.0245 1.91873-.0578 2.77542-.10285.85669-.045 1.64723-.10177 2.37721-.1733.72999-.0715 1.39952-.15755 2.01531-.26176.3079-.0521.60259-.10879.88428-.17021.2817-.0614.55058-.12803.80764-.19953.25704-.0715.50199-.14803.73596-.23039.23398-.0823.45689-.17035.66935-.26434.21246-.094.41467-.19396.60718-.30032.19251-.10635.37537-.21886.5495-.33838.17412-.1195.33954-.24609.49683-.37951.1573-.13342.30657-.27411.44861-.42219.14203-.14811.27652-.30342.40485-.46695.12834-.16354.2505-.33502.36669-.51477.11621-.17975.2268-.36794.33244-.56465.10572-.19672.20603-.40213.30264-.61659.19324-.42893.37047-.893783.53706-1.398259.1666-.504476.32293-1.048656.47537-1.634811.15244-.586154.30079-1.214381.45157-1.888337.15079-.673957.3041-1.393522.46575-2.161407.14992-.712145.28278-1.377978.39559-2.000444.11281-.622467.20529-1.201424.27291-1.740233.0676-.53881.11078-1.037359.12518-1.498535.008-.230587.007-.452106-.00061-.664415-.008-.212307-.008-.273017-.0138-.32533-.004-.04395-.0502-.819463-.24408-1.248535" style="fill:none;fill-opacity:1;stroke:#008dff;stroke-width:5.1346;stroke-linecap:butt;stroke-linejoin:miter;stroke-dasharray:none;stroke-opacity:1;stop-color:#000" transform="matrix(.96705 0 0 1.04445 -50.409067 -52.376211)"/></g></svg>