<svg xmlns="http://www.w3.org/2000/svg" version="1.0" viewBox="0 0 468 617"><g fill="#009"><path d="M214 23c-10 10-11 89-2 104 4 6 11 8 18 6 8-4 11-15 11-51 0-63-7-79-27-59zm155 44c-19 41-22 77-7 81 13 2 60-87 54-103-8-21-32-10-47 22zM24 52c-6 15 42 112 54 109 27-5-8-118-36-118-8 0-16 4-18 9zm156 147c-35 5-91 37-124 71-69 70-46 245 40 299 45 29 76 36 142 32 89-5 151-44 195-122 38-66 23-156-36-225-44-50-120-70-217-55z"/><path fill="#ffff63" d="M314 235c33 9 80 49 98 85 17 34 18 104 2 135-15 30-58 76-83 88-97 51-196 39-249-29-27-37-36-65-36-124 1-55 14-80 58-114 57-45 141-61 210-41z"/><path d="M328 357c-4 5-11 20-15 34-15 47-71 85-102 69-22-10-46-39-63-72-15-28-36-34-40-10-4 18 37 79 68 100 63 44 145 5 179-84 10-29-11-58-27-37z"/></g></svg>